<?xml version="1.0" encoding="iso-8859-1"?>
<!-- Generator: Adobe Illustrator 19.0.0, SVG Export Plug-In . SVG Version: 6.00 Build 0)  -->
<svg version="1.1" id="Capa_1" xmlns="http://www.w3.org/2000/svg" xmlns:xlink="http://www.w3.org/1999/xlink" x="0px" y="0px"
	 viewBox="0 0 490 490" style="enable-background:new 0 0 490 490;" xml:space="preserve">
<g>
	<path d="M384.532,62.521H315.59C311.37,27.362,281.599,0,245.075,0s-66.294,27.362-70.515,62.521h-69.107
		C47.313,62.521,0,110.866,0,170.277v106.739c0,59.411,47.313,107.756,105.453,107.756h176.393L410.103,490V381.526
		C456.489,369.713,490,327.006,490,277.016V170.277C490,110.866,442.687,62.521,384.532,62.521z M459.375,277.016
		c0,39.208-28.531,72.136-66.379,76.592l-13.518,1.6v70.043l-86.686-71.104H105.453c-41.257,0-74.828-34.603-74.828-77.131V170.277
		c0-42.528,33.571-77.131,74.828-77.131h72.192c9.432,28.192,35.887,48.659,67.43,48.659c31.543,0,57.999-20.467,67.431-48.659
		h72.027c41.272,0,74.843,34.603,74.843,77.131V277.016z"/>
	<path d="M289.932,157.959h-89.714c0,0-64.439,0.716-64.439,59.729c0,58.656,0,72.079,0,72.079h218.593c0,0,0-13.423,0-72.079
		C354.372,159.031,289.932,157.959,289.932,157.959z"/>
</g>
</svg>
