<?xml version="1.0" standalone="no"?>
<!DOCTYPE svg PUBLIC "-//W3C//DTD SVG 20010904//EN"
 "http://www.w3.org/TR/2001/REC-SVG-20010904/DTD/svg10.dtd">
<svg version="1.0" xmlns="http://www.w3.org/2000/svg"
 width="1280.000000pt" height="791.000000pt" viewBox="0 0 1280.000000 791.000000"
 preserveAspectRatio="xMidYMid meet">
<g transform="translate(0.000000,791.000000) scale(0.100000,-0.100000)"
fill="#000000" stroke="none">
<path d="M5470 7292 c-94 -53 -370 -209 -1565 -890 -198 -112 -387 -225 -420
-250 -157 -119 -385 -387 -466 -547 -39 -76 -41 -83 -36 -150 6 -77 38 -177
86 -272 17 -34 31 -68 31 -74 0 -6 -486 -594 -1080 -1307 -1057 -1268 -1080
-1296 -1074 -1331 4 -34 0 -41 -98 -144 l-103 -108 -54 1 c-36 0 -68 -7 -98
-22 -93 -47 -267 -233 -385 -412 -65 -99 -64 -87 -18 -224 105 -311 425 -577
760 -631 54 -9 56 -9 110 32 169 127 339 306 392 415 30 60 31 67 21 115 -6
29 -8 57 -4 64 3 6 54 63 114 126 l107 115 58 -3 c56 -2 59 -4 247 -145 643
-482 1329 -961 1703 -1190 100 -61 105 -62 140 -51 188 57 969 924 1897 2103
288 367 272 344 375 542 l92 177 202 202 c382 383 580 654 621 852 10 47 15
132 15 254 0 182 1 189 55 475 30 160 57 301 60 312 3 12 43 50 93 87 148 110
194 169 216 278 3 15 14 30 23 33 10 4 107 60 215 124 l197 116 -6 42 -6 42
69 21 c723 213 1425 366 1934 422 155 17 414 14 565 -5 260 -34 659 -122 1041
-230 145 -41 555 -166 597 -182 24 -9 138 104 176 175 46 87 64 177 58 296 -2
55 -8 108 -12 117 -16 39 -763 258 -1255 367 -307 68 -559 101 -777 101 -496
0 -1361 -139 -2371 -382 -202 -48 -213 -50 -226 -33 -12 17 -25 18 -220 7
-113 -6 -212 -9 -219 -6 -6 2 -25 29 -41 59 -55 105 -111 131 -271 122 -117
-6 -280 -46 -434 -106 l-104 -40 -94 42 c-93 41 -96 44 -171 137 -203 255
-406 420 -517 420 -31 0 -66 -14 -145 -58z m-922 -3004 l291 -213 75 -177 c42
-97 76 -184 76 -192 0 -21 -26 -20 -260 0 -216 20 -245 16 -372 -45 -138 -67
-251 -172 -335 -313 -20 -33 -115 -302 -256 -723 -302 -898 -340 -1008 -354
-1012 -11 -4 -833 1070 -839 1097 -2 8 312 379 724 855 l727 840 104 53 c57
29 109 51 116 48 6 -2 143 -100 303 -218z m259 -1090 c125 -44 234 -87 242
-94 12 -11 12 -19 1 -54 -15 -45 -25 -48 -91 -25 -23 9 -46 12 -49 8 -4 -5
-35 -156 -69 -338 -48 -253 -67 -337 -83 -360 -38 -53 -579 -745 -586 -749
-14 -8 -422 -60 -427 -54 -9 8 -7 13 270 850 234 709 249 750 287 793 22 25
59 55 82 67 113 58 149 54 423 -44z"/>
</g>
</svg>
