<?xml version="1.0" encoding="iso-8859-1"?>
<!-- Generator: Adobe Illustrator 17.1.0, SVG Export Plug-In . SVG Version: 6.00 Build 0)  -->
<!DOCTYPE svg PUBLIC "-//W3C//DTD SVG 1.1//EN" "http://www.w3.org/Graphics/SVG/1.1/DTD/svg11.dtd">
<svg version="1.1" id="Capa_1" xmlns="http://www.w3.org/2000/svg" xmlns:xlink="http://www.w3.org/1999/xlink" x="0px" y="0px"
	 viewBox="0 0 240.235 240.235" style="enable-background:new 0 0 240.235 240.235;" xml:space="preserve">
<path d="M211.744,6.089C208.081,2.163,203.03,0,197.52,0h-15.143c-11.16,0-21.811,8.942-23.74,19.934l-0.955,5.436
	c-0.96,5.47,0.332,10.651,3.639,14.589c3.307,3.938,8.186,6.106,13.74,6.106h19.561c2.714,0,5.339-0.542,7.778-1.504l-2.079,17.761
	c-2.001-0.841-4.198-1.289-6.507-1.289h-22.318c-9.561,0-18.952,7.609-20.936,16.961l-19.732,93.027l-93.099-6.69
	c-5.031-0.36-9.231,1.345-11.835,4.693c-2.439,3.136-3.152,7.343-2.009,11.847l10.824,42.618
	c2.345,9.233,12.004,16.746,21.53,16.746h78.049h1.191h39.729c9.653,0,18.336-7.811,19.354-17.411l15.272-143.981
	c0.087-0.823,0.097-1.634,0.069-2.437l5.227-44.648c0.738-1.923,1.207-3.967,1.354-6.087l0.346-4.97
	C217.214,15.205,215.407,10.016,211.744,6.089z"/>
<g>
</g>
<g>
</g>
<g>
</g>
<g>
</g>
<g>
</g>
<g>
</g>
<g>
</g>
<g>
</g>
<g>
</g>
<g>
</g>
<g>
</g>
<g>
</g>
<g>
</g>
<g>
</g>
<g>
</g>
</svg>
